<svg xmlns="http://www.w3.org/2000/svg" viewBox="0 0 90.85 78.31"><defs><style>.cls-1{fill:#231816;}</style></defs><g id="Calque_2" data-name="Calque 2"><g id="图层_1" data-name="图层 1"><path class="cls-1" d="M61.67,73.44c-1.12-.18-2.11-.23-2.11-.83a.87.87,0,0,1,.35-.64,2.17,2.17,0,0,1,1-.2,1.29,1.29,0,0,1,.92.41,1.35,1.35,0,0,1,.33.69H64a2.25,2.25,0,0,0-.85-1.69,3.43,3.43,0,0,0-2-.81,3.86,3.86,0,0,0-2.28.46,2.34,2.34,0,0,0-1,1.74,2.41,2.41,0,0,0,.11,1,3.57,3.57,0,0,0,.92,1,12.54,12.54,0,0,0,2.21.54c.5.12,1.11.15,1.25.65a.65.65,0,0,1-.29.75,2,2,0,0,1-1.09.3,1.45,1.45,0,0,1-1.1-.41,3.43,3.43,0,0,1-.45-.9h-1.8a3,3,0,0,0,1.07,2.11,3.5,3.5,0,0,0,2.26.67,4.12,4.12,0,0,0,2.39-.6,2.48,2.48,0,0,0,.92-1.92,2.23,2.23,0,0,0-.42-1.37A3.23,3.23,0,0,0,61.67,73.44Z"/><rect class="cls-1" x="38.1" y="70.48" width="1.83" height="7.61"/><rect class="cls-1" x="38.1" y="68.12" width="1.85" height="1.84"/><path class="cls-1" d="M35.42,71.48a4.31,4.31,0,0,0-2.5-.92h-.1a3.82,3.82,0,0,0,0,7.64h.1a3.66,3.66,0,0,0,2.49-1v.94h1.74v-10H35.42Zm-2.49,5.15h0a2.27,2.27,0,1,1,0-4.53h0a2.27,2.27,0,1,1,0,4.53Z"/><path class="cls-1" d="M46.81,71.46a4.32,4.32,0,0,0-2.5-.93h-.1a3.83,3.83,0,1,0,0,7.65h.1a3.64,3.64,0,0,0,2.49-1.06v.94h1.74v-10H46.8Zm-2.5,5.16a2.27,2.27,0,1,1,2.28-2.28A2.29,2.29,0,0,1,44.31,76.62Z"/><path class="cls-1" d="M26.56,70.48v.72a2,2,0,0,0-.93-.66,4.75,4.75,0,0,0-1.35-.27h-.09a4.05,4.05,0,0,0-1.56.29,3.64,3.64,0,0,0-1.25.9,4.22,4.22,0,0,0-.82,1.26,4.38,4.38,0,0,0-.27,1.5,3.95,3.95,0,0,0,4,4h0A4.19,4.19,0,0,0,25.66,78a1.73,1.73,0,0,0,.9-.54v.69h1.77l0-7.63Zm-2.27,6h0a2.26,2.26,0,1,1,0-4.51h0a2.26,2.26,0,0,1,0,4.51Z"/><path class="cls-1" d="M55.39,70.45v.72a2.2,2.2,0,0,0-.92-.65,4.33,4.33,0,0,0-1.36-.26H53a4.31,4.31,0,0,0-1.57.27,3.59,3.59,0,0,0-1.25.9,3.68,3.68,0,0,0-.81,1.28,4.08,4.08,0,0,0-.29,1.49,3.93,3.93,0,0,0,1.16,2.87,3.9,3.9,0,0,0,4.21.86,1.77,1.77,0,0,0,.91-.55v.7l1.77,0,0-7.61Zm-2.27,6a2.27,2.27,0,1,1,2.27-2.27A2.28,2.28,0,0,1,53.12,76.5Z"/><path class="cls-1" d="M65.76,66.43l0,0a2.14,2.14,0,1,0,0,4.28h0a2.13,2.13,0,0,0,0-4.26Zm0,3.92a1.78,1.78,0,1,1,1.79-1.78A1.8,1.8,0,0,1,65.76,70.35Z"/><path class="cls-1" d="M66.38,68.91a1.45,1.45,0,0,0-.25-.2.72.72,0,0,0,.46-.23.61.61,0,0,0,.16-.41.8.8,0,0,0-.11-.38.64.64,0,0,0-.27-.22,1.76,1.76,0,0,0-.54,0h-1v2.32h.47v-1h.08l.25,0a.32.32,0,0,1,.12.08s0,0,0,0a1.2,1.2,0,0,1,.26.33l.34.51h.56l-.29-.45A3.27,3.27,0,0,0,66.38,68.91Zm-.62-.51h-.45v-.59h.45a.73.73,0,0,1,.26,0,.25.25,0,0,1,.17.08.2.2,0,0,1,.07.18c0,.06,0,.15-.05.18l-.12.1Z"/><path class="cls-1" d="M37.92,56.14H22.41a49.48,49.48,0,0,0,16.23,6l-.72-6Zm11.83,0-.93,5.68a50.59,50.59,0,0,0,16.41-5.68Zm-1.78,0-8.53,0a29.54,29.54,0,0,0,4.46,6.58A31,31,0,0,0,48,56.12ZM70.9,52.35l-54.25,0a21,21,0,0,1-4.49-4.11H75.45a37.12,37.12,0,0,1-4.55,4.14ZM79,43.51l-70.11,0a30.59,30.59,0,0,1-2.67-4.6H81.66A24.87,24.87,0,0,1,79,43.51ZM28.81,34H4.33A56.09,56.09,0,0,1,0,16.83C12.61,19.07,22.35,24.25,28.81,34Zm25.08,0H33.76C33.31,21.06,36.9,7.91,43.83,0c7.05,7.71,10.69,20.8,10.06,34Zm29.84,0-25,0c6.89-9.7,16.79-15.17,29.61-17.12A56.69,56.69,0,0,1,83.73,34Z"/><path class="cls-1" d="M86.08,5.57H86a4.8,4.8,0,1,0,0,9.6h.08a4.8,4.8,0,0,0,0-9.59Zm0,8.84a4,4,0,1,1,4-4A4,4,0,0,1,86.08,14.41Z"/><path class="cls-1" d="M87.48,11.16a3.33,3.33,0,0,0-.56-.45,1.68,1.68,0,0,0,1-.5,1.34,1.34,0,0,0,.34-.94,1.69,1.69,0,0,0-.25-.84A1.17,1.17,0,0,0,87.44,8a3.23,3.23,0,0,0-1.22-.16H84V13h1V10.83h.22a1.82,1.82,0,0,1,.54.06.81.81,0,0,1,.26.18l0,0c.09.13.28.37.56.78L87.44,13H88.7l-.62-1A5.48,5.48,0,0,0,87.48,11.16ZM86.08,10h-1V8.7h1.59a.6.6,0,0,1,.41.21.49.49,0,0,1,.14.41.79.79,0,0,1-.1.4.77.77,0,0,1-.31.21A5.37,5.37,0,0,1,86.08,10Z"/></g></g></svg>