<svg xmlns="http://www.w3.org/2000/svg" viewBox="0 0 104.04 18.02"><defs><style>.cls-1{fill:#fff;}.cls-1,.cls-2{fill-rule:evenodd;}</style></defs><g id="Calque_2" data-name="Calque 2"><g id="图层_1" data-name="图层 1"><path class="cls-1" d="M10,.77C6.28,6.12,3.21,12.14,0,18c1.31-.43,3.85-1.1,5,0C7.82,13.41,9.84,8,13.35,4.11c5.79-.33,14,1.7,14.47-3.9C22,.55,14.88-.49,10,.77ZM30,.21c-2.56,6-8.11,11.92-8.9,17.81.42-1.26,3.12-.22,4.45-.56C28.42,11.39,32.15,6.22,35.05.21Zm7.79,13.91c-2.18.67-4.89-.47-8.9,0-.12,1.22-2.51,3-1.11,3.9,3.53-1.3,9.45-.19,13.91-.56C46.32,12.78,49,6.13,52.3.21,42.18-1,45,11.91,37.83,14.12ZM56.19.77A188,188,0,0,0,46.18,18c1.31-.43,3.84-1.1,5,0,1.47-2.43,2.45-5.34,4.45-7.24,3.6.66,10.09-1.56,11.12,1.67-1.17,3.28-7.92,1-11.68,1.67-.46,1.39-1.52,2.19-1.67,3.9C61.33,17,75.55,19.48,71.77,8.56a8.27,8.27,0,0,0,5-6.12C73.43-1.29,62,.23,56.19.77ZM81.79.21c-2.5,6-8,12-8.91,17.81.42-1.26,3.12-.22,4.46-.56,2.9-6,6.63-11.17,9.45-17.25Zm9.45,13.36c-2.38.73-7.67,1-10,0-.48,1.75-2.1,2.35-2.23,4.45,3.87-1.14,9.72-.3,14.47-.56C98.11,12.83,100.8,6.24,104,.21,94.64-.47,96.31,9.92,91.24,13.57ZM11.13,11.9c2.12-1,7.86-.83,10,0,.2-1.32,2.69-3.2,1.11-4.45-2.12,1-7.86.82-10,0C12.41,9.13,9.32,10.41,11.13,11.9Z"/><path class="cls-2" d="M27.82.21c-.52,5.6-8.68,3.57-14.47,3.9C9.84,8,7.82,13.41,5,18c-1.16-1.1-3.7-.43-5,0C3.21,12.14,6.28,6.12,10,.77,14.88-.49,22,.55,27.82.21Z"/><path class="cls-2" d="M35.05.21c-2.9,6-6.63,11.18-9.46,17.25-1.33.34-4-.7-4.45.56C21.93,12.13,27.48,6.19,30,.21Z"/><path class="cls-2" d="M52.3.21c-3.35,5.92-6,12.57-10.57,17.25-4.46.37-10.38-.74-13.91.56-1.4-.9,1-2.68,1.11-3.9,4-.47,6.72.67,8.9,0C45,11.91,42.18-1,52.3.21Z"/><path class="cls-2" d="M76.78,2.44a8.27,8.27,0,0,1-5,6.12C75.55,19.48,61.33,17,53.41,18c.15-1.71,1.21-2.51,1.67-3.9,3.76-.68,10.51,1.61,11.68-1.67-1-3.23-7.52-1-11.12-1.67-2,1.9-3,4.81-4.45,7.24-1.17-1.1-3.7-.43-5,0A188,188,0,0,1,56.19.77C62,.23,73.43-1.29,76.78,2.44ZM57.31,6.89c3.76-.68,10.3,1.4,12.24-1.11C70.08,3.32,57.08,2.68,57.31,6.89Z"/><path class="cls-2" d="M86.79.21C84,6.29,80.24,11.46,77.34,17.46c-1.34.34-4-.7-4.46.56.88-5.81,6.41-11.77,8.91-17.81Z"/><path class="cls-2" d="M104,.21c-3.24,6-5.93,12.62-10.57,17.25-4.75.26-10.6-.58-14.47.56.13-2.1,1.75-2.7,2.23-4.45,2.34,1,7.63.73,10,0C96.31,9.92,94.64-.47,104,.21Z"/><path class="cls-1" d="M69.55,5.78c-1.94,2.51-8.48.43-12.24,1.11C57.08,2.68,70.08,3.32,69.55,5.78Z"/><path class="cls-2" d="M12.24,7.45c2.15.82,7.89,1,10,0,1.58,1.25-.91,3.13-1.11,4.45-2.15-.83-7.89-1-10,0C9.32,10.41,12.41,9.13,12.24,7.45Z"/></g></g></svg>