<svg xmlns="http://www.w3.org/2000/svg" viewBox="0 0 104.44 104.45"><defs><style>.cls-1{fill:#eb202d;}.cls-2{fill:#fff;}</style></defs><g id="Calque_2" data-name="Calque 2"><g id="图层_1" data-name="图层 1"><rect class="cls-1" width="104.44" height="104.45"/><path class="cls-2" d="M66.24,69.58H92.78v-10A26.55,26.55,0,0,0,66.26,33h0Z"/><polygon class="cls-2" points="41.83 44.49 39.45 44.49 39.45 35.08 35.99 35.08 35.99 33.06 45.29 33.06 45.29 35.08 41.83 35.08 41.83 44.49"/><polygon class="cls-2" points="48.29 39.36 48.29 44.49 45.91 44.49 45.91 33.06 48.29 33.06 48.29 37.39 52.75 37.39 52.75 33.06 55.13 33.06 55.13 44.49 52.75 44.49 52.75 39.36 48.29 39.36"/><polygon class="cls-2" points="64.68 35.08 58.68 35.08 58.68 37.49 63.97 37.49 63.97 39.51 58.68 39.51 58.68 42.47 64.69 42.47 64.69 44.49 56.45 44.49 56.45 33.06 64.68 33.06 64.68 35.08"/><polygon class="cls-2" points="19.83 45.61 22.06 45.61 22.06 57.04 19.67 57.04 15.01 48.89 14.98 48.89 14.98 57.04 12.75 57.04 12.75 45.61 15.26 45.61 19.8 53.57 19.83 53.57 19.83 45.61"/><path class="cls-2" d="M28.72,45.31c1.51,0,5.49.65,5.49,6s-4,6-5.49,6-5.49-.65-5.49-6S27.21,45.31,28.72,45.31Zm0,10c1.29,0,3.1-.8,3.1-4s-1.81-4-3.1-4-3.1.8-3.1,4S27.43,55.32,28.72,55.32Z"/><polygon class="cls-2" points="51.14 57.04 48.76 57.04 48.76 47.63 45.3 47.63 45.3 45.61 54.59 45.61 54.59 47.63 51.14 47.63 51.14 57.04"/><polygon class="cls-2" points="57.84 51.92 57.84 57.04 55.45 57.04 55.45 45.61 57.84 45.61 57.84 49.94 62.29 49.94 62.29 45.61 64.68 45.61 64.68 57.04 62.29 57.04 62.29 51.92 57.84 51.92"/><polygon class="cls-2" points="30.62 69.59 28.24 69.59 28.24 58.16 36.36 58.16 36.36 60.19 30.62 60.19 30.62 62.76 35.65 62.76 35.65 64.78 30.62 64.78 30.62 69.59"/><path class="cls-2" d="M37.45,69.59H34.93L39,58.16h2.75l4,11.43H43.19l-.73-2.36H38.24Zm1.43-4.33h2.91l-1.42-4.52h0Z"/><path class="cls-2" d="M53.11,61.9a2.31,2.31,0,0,0-2.53-2c-1.14,0-2.83.77-2.83,4,0,2.06.81,3.9,2.83,3.9a2.44,2.44,0,0,0,2.53-2.14H55.5a4.75,4.75,0,0,1-5,4.21c-3,0-5.22-2-5.22-6s2.3-6,5.25-6c3.42,0,4.8,2.36,4.93,4Z"/><polygon class="cls-2" points="64.68 60.19 58.68 60.19 58.68 62.59 63.97 62.59 63.97 64.61 58.68 64.61 58.68 67.57 64.69 67.57 64.69 69.59 56.45 69.59 56.45 58.16 64.68 58.16 64.68 60.19"/><path class="cls-2" d="M35.38,45.61h5.76c3,0,3.59,2.24,3.59,3.22A2.73,2.73,0,0,1,43,51.55c.94.41,1.45.76,1.45,2.88,0,1.67,0,2.08.51,2.28V57H42.28a7.59,7.59,0,0,1-.25-2.3c0-1.56-.09-2.17-1.86-2.17H37.71V57H35.38Zm5.13,5c1.23,0,1.84-.43,1.84-1.56,0-.6-.27-1.49-1.67-1.49h-3v3.05Z"/><path class="cls-1" d="M66.24,45.69h1.2A13.57,13.57,0,0,1,81,59.26v11h1.33v-11a14.9,14.9,0,0,0-14.89-14.9H65.58v1.33Z"/><path class="cls-1" d="M73,69.58v-8a4.69,4.69,0,0,0-4.69-4.69h-2.7v1.34h2.69a3.35,3.35,0,0,1,3.35,3.35v8.66H73Z"/><path class="cls-2" d="M24.85,68.16l.43.66.25-.16L25.1,68Zm-.43.6V67.44h.49a.47.47,0,0,1,.31.07s.05.07.06.17,0,.15-.08.18a.36.36,0,0,1-.24.07v0h-.7v.3H25a.77.77,0,0,0,.42-.13.52.52,0,0,0,.19-.42.51.51,0,0,0-.17-.4.73.73,0,0,0-.5-.14h-.79v1.62Z"/><path class="cls-2" d="M24.75,66.46v-.15A1.72,1.72,0,1,0,26.46,68a1.71,1.71,0,0,0-1.71-1.71v.3A1.42,1.42,0,1,1,23.34,68a1.42,1.42,0,0,1,1.41-1.41Z"/></g></g></svg>