<svg xmlns="http://www.w3.org/2000/svg" viewBox="0 0 115.67 73.32"><defs><style>.cls-1{fill:#e41e26;}</style></defs><g id="Calque_2" data-name="Calque 2"><g id="图层_1" data-name="图层 1"><path class="cls-1" d="M114.61,0l-83,35.74c-8.93,3.84-23,8.28-28.92-1.09C-.62,29.44,1.4,21.3,6.17,13.84A107.21,107.21,0,0,1,17.06.33c-2.2,3.56-8.26,15.51-.13,21.36,3.17,2.28,8.71,2.48,15.58.61Z"/><path d="M3.55,51H9.78l.14,15.35s0,3.7-2.18,5.52a6.33,6.33,0,0,1-5.28,1.23A6.19,6.19,0,0,1,0,72.2V66.92a4.62,4.62,0,0,0,1.34.7c.77.25,1.28.44,2-.25.35-.35.31-1.47.31-1.47Zm6.63,14.82s-.87,7.49,7.67,7.49c7.89,0,7.46-7.08,7.46-7.77S25.24,51,25.24,51H19l0,14.25s.17,2.22-1.34,2.22-1.3-2.08-1.3-2.08L16.3,51H10.08Zm27.1-8.34,0-5.59a13.46,13.46,0,0,0-5.4-1.35,6.25,6.25,0,0,0-5.38,2.8,6.59,6.59,0,0,0-.95,4.7,6.94,6.94,0,0,0,2.43,4.14c.66.65,1.91,1.66,2.24,2s1.48,1,1.3,2.24c-.12.78-.55,1.32-2,1.27-1.85,0-4-1.85-4-1.85l0,5.72a9.68,9.68,0,0,0,5.09,1.74,7.86,7.86,0,0,0,5.3-1.79,7.11,7.11,0,0,0,2.18-6.39c-.38-2.73-2.84-4.53-3.53-5.11A12.26,12.26,0,0,1,32,57.66a1.42,1.42,0,0,1,.83-1.74C33.41,55.84,34.38,55.36,37.28,57.49Zm.24-1h3.66V72.82h6.2V56.51h3.48V51H37.52Zm60.8,0H102V72.82h6.2V56.51h3.49V51H98.32ZM55.12,72.86h6.8c1.41,0,8.71-.33,8.71-11.31,0-10.73-8-10.53-8-10.53H55.16Zm6.3-16a2.91,2.91,0,0,1,1.25.12c.37.21,1.53.87,1.53,5.22s-1,4.89-1.57,5.22a1.91,1.91,0,0,1-1.25.17ZM79.17,50.4s-8.34-.29-8.34,11.23c0,12.48,8.34,11.65,8.34,11.65s8.62,1.12,8.62-11.4S79.17,50.4,79.17,50.4Zm0,5.39c.58,0,2-.41,2,6.09s-1.66,5.8-2,5.8-2,.42-2-5.76C77.22,55.58,78.63,55.79,79.21,55.79Zm12.44,17H97.9V51H91.56Zm17-3a3.52,3.52,0,0,0,3.46,3.49,3.42,3.42,0,0,0,3.52-3.51,3.54,3.54,0,0,0-3.52-3.46A3.49,3.49,0,0,0,108.69,69.8Z"/></g></g></svg>