<svg xmlns="http://www.w3.org/2000/svg" viewBox="0 0 129.2 49.19"><defs><style>.cls-1{fill:#010101;}</style></defs><g id="Calque_2" data-name="Calque 2"><g id="图层_1" data-name="图层 1"><polygon class="cls-1" points="33.39 0.06 42.81 0.06 27.37 48.71 15.75 48.71 0 0.32 9.53 0.35 21.84 37.53 33.39 0.06"/><rect class="cls-1" x="33.41" width="87.49" height="8.37"/><path class="cls-1" d="M44.32,48.66H35.8l9.53-33h8.8l9.53,33H55l-1-4.31H45.33Zm8.23-11.29L49.66,25.54,46.92,37.37Z"/><polygon class="cls-1" points="74.78 15.69 84.3 33.6 84.02 26.08 84.02 15.69 92.39 15.69 92.39 48.66 84.16 48.66 74.63 30.74 75.06 38.26 75.06 48.66 66.69 48.66 66.69 15.69 74.78 15.69"/><path class="cls-1" d="M119.52,25.18H111.3A2.4,2.4,0,0,0,110,23a3,3,0,0,0-2.17-.71c-1.92,0-2.89.66-2.89,2s1.74,2.33,5.2,3.4q10.11,3,10.11,10.39Q120,49,107.83,49.19,97.3,48.65,96,38.44h8.37a5.1,5.1,0,0,0,1.44,2.69,4.1,4.1,0,0,0,2.45.72q3.76,0,3.76-2.33c0-1.32-1.69-2.45-5-3.41q-10.26-3-10.25-10.75.28-10.2,11.4-10.57Q118.21,15,119.52,25.18Z"/><path class="cls-1" d="M128.82,14.82h-.38a2.66,2.66,0,1,1-2.66-2.66,2.67,2.67,0,0,1,2.66,2.66h.76a3.42,3.42,0,1,0-3.42,3.42,3.42,3.42,0,0,0,3.42-3.42Z"/><path class="cls-1" d="M127.7,16.49v.1h-.9l-1.28-1.69-.32,0V16c0,.35.12.51.49.5v.1h-1.52v-.1c.37,0,.53-.16.47-.56V13.56c0-.34-.11-.51-.47-.49V13h1.52c.91,0,1.38.33,1.39.94s-.33.82-1,.92l1.11,1.39A.62.62,0,0,0,127.7,16.49Zm-2.5-3.12v1.34c.85,0,1.28-.23,1.28-.79s-.31-.75-.94-.75C125.29,13.16,125.17,13.22,125.2,13.37Z"/></g></g></svg>