<?xml version="1.0" encoding="utf-8"?>
<!-- Generator: Adobe Illustrator 24.1.2, SVG Export Plug-In . SVG Version: 6.00 Build 0)  -->
<svg version="1.1" xmlns="http://www.w3.org/2000/svg" xmlns:xlink="http://www.w3.org/1999/xlink" x="0px" y="0px"
	 viewBox="0 0 841.9 595.3" style="enable-background:new 0 0 841.9 595.3;" xml:space="preserve">
<style type="text/css">
	.st0{fill:#A5177E;}
	.st1{fill:#22254F;}
	.st2{fill:url(#SVGID_1_);}
</style>
<g id="Calque_4">
	<g id="Calque_13">
		<path class="st0" d="M392.8,161.3v103.2h-25.5v-77.9L392.8,161.3z"/>
	</g>
	<g id="Calque_12">
		<path class="st0" d="M449.1,264.5c-7.1,0-13.8-1.4-20.1-4.1c-6.2-2.7-11.7-6.4-16.4-11.1c-4.7-4.7-8.4-10.1-11.1-16.4
			c-2.7-6.2-4.1-12.9-4.1-20.1c0-7.1,1.4-13.9,4.1-20.2c2.7-6.3,6.4-11.8,11.1-16.5c4.7-4.7,10.1-8.4,16.4-11.1
			c6.2-2.7,12.9-4.1,20.1-4.1c7,0,13.6,1.3,19.9,3.9c6.3,2.6,11.9,6.4,16.8,11.3l-18.1,18.1c-2.5-2.5-5.3-4.4-8.5-5.6
			c-3.2-1.2-6.5-1.9-10.1-1.9s-6.9,0.7-10.1,2.1c-3.2,1.4-6,3.2-8.3,5.5c-2.4,2.3-4.2,5.1-5.6,8.3c-1.4,3.2-2.1,6.6-2.1,10.2
			c0,3.6,0.7,7,2.1,10.2c1.4,3.2,3.2,5.9,5.6,8.3c2.4,2.3,5.1,4.2,8.3,5.5c3.2,1.4,6.5,2.1,10.1,2.1s6.9-0.7,10.1-2s6-3.2,8.5-5.7
			l18.1,18.1c-4.9,4.9-10.5,8.7-16.8,11.3C462.7,263.2,456,264.5,449.1,264.5z"/>
	</g>
	<g id="Calque_11">
		<path class="st0" d="M529.4,264.5c-7.1,0-13.8-1.4-20.1-4.1c-6.2-2.7-11.7-6.4-16.4-11.1c-4.7-4.7-8.4-10.1-11.1-16.4
			c-2.7-6.2-4.1-12.9-4.1-20.1c0-7,1.4-13.7,4.1-20c2.7-6.3,6.4-11.8,11.1-16.4c4.7-4.7,10.1-8.4,16.4-11.1
			c6.2-2.7,12.9-4.1,20.1-4.1c7.1,0,13.7,1.4,20,4.1c6.3,2.7,11.8,6.4,16.4,11.1c4.7,4.7,8.4,10.2,11.1,16.4
			c2.7,6.3,4.1,12.9,4.1,20c0,7.1-1.4,13.8-4.1,20.1c-2.7,6.2-6.4,11.7-11.1,16.4c-4.7,4.7-10.2,8.4-16.4,11.1
			C543.1,263.2,536.5,264.5,529.4,264.5z M529.4,187.1c-3.6,0-7,0.7-10.2,2.1c-3.2,1.4-5.9,3.2-8.3,5.5s-4.2,5.1-5.5,8.2
			c-1.4,3.1-2.1,6.5-2.1,10c0,3.6,0.7,7,2.1,10.2c1.4,3.2,3.2,5.9,5.5,8.3c2.3,2.3,5.1,4.2,8.3,5.5c3.2,1.4,6.6,2.1,10.2,2.1
			c3.5,0,6.9-0.7,10-2.1c3.1-1.4,5.9-3.2,8.2-5.5c2.3-2.3,4.2-5.1,5.5-8.3c1.4-3.2,2.1-6.6,2.1-10.2c0-3.5-0.7-6.9-2.1-10
			c-1.4-3.1-3.2-5.9-5.5-8.2c-2.3-2.3-5.1-4.2-8.2-5.5C536.3,187.8,533,187.1,529.4,187.1z"/>
	</g>
	<g id="Calque_10">
		<path class="st0" d="M680,264.5h-25.3v-55.5c0-3.1-0.6-6-1.7-8.7c-1.2-2.7-2.8-5-4.8-7c-2-2-4.4-3.5-7.1-4.7
			c-2.7-1.2-5.6-1.7-8.6-1.7c-3.1,0-6,0.6-8.7,1.7c-2.7,1.2-5.1,2.7-7.2,4.7c-2.1,2-3.7,4.3-4.8,7c-1.2,2.7-1.7,5.6-1.7,8.7v55.5
			h-25.3v-55.5c0-6.5,1.2-12.7,3.7-18.5c2.5-5.8,5.9-10.9,10.3-15.2c4.3-4.3,9.4-7.8,15.2-10.3c5.8-2.5,12-3.7,18.6-3.7
			c6.5,0,12.7,1.2,18.5,3.7c5.8,2.5,10.8,5.9,15.1,10.3c4.3,4.3,7.6,9.4,10.1,15.2c2.5,5.8,3.7,12,3.7,18.5V264.5z"/>
	</g>
	<g id="Calque_9">
		<path class="st0" d="M710.1,161.3v103.2h-25.5v-77.9L710.1,161.3z"/>
	</g>
	<g id="Calque_8">
		<path class="st0" d="M766.4,264.5c-7.1,0-13.8-1.4-20.1-4.1c-6.2-2.7-11.7-6.4-16.4-11.1c-4.7-4.7-8.4-10.1-11.1-16.4
			c-2.7-6.2-4.1-12.9-4.1-20.1c0-7.1,1.4-13.9,4.1-20.2c2.7-6.3,6.4-11.8,11.1-16.5c4.7-4.7,10.1-8.4,16.4-11.1
			c6.2-2.7,12.9-4.1,20.1-4.1c7,0,13.6,1.3,19.9,3.9c6.3,2.6,11.9,6.4,16.8,11.3L785,194.4c-2.5-2.5-5.3-4.4-8.5-5.6
			c-3.2-1.2-6.5-1.9-10.1-1.9c-3.5,0-6.9,0.7-10.1,2.1c-3.2,1.4-6,3.2-8.3,5.5c-2.4,2.3-4.2,5.1-5.6,8.3c-1.4,3.2-2.1,6.6-2.1,10.2
			c0,3.6,0.7,7,2.1,10.2c1.4,3.2,3.2,5.9,5.6,8.3c2.4,2.3,5.1,4.2,8.3,5.5c3.2,1.4,6.5,2.1,10.1,2.1c3.5,0,6.9-0.7,10.1-2
			s6-3.2,8.5-5.7l18.1,18.1c-4.9,4.9-10.5,8.7-16.8,11.3C780,263.2,773.3,264.5,766.4,264.5z"/>
	</g>
	<g id="Calque_7">
		<path class="st1" d="M393.3,274.8V337c0,7.1-1.4,13.8-4.1,20.1c-2.7,6.2-6.4,11.7-11,16.3c-4.6,4.6-10.1,8.3-16.4,11
			c-6.3,2.7-13,4-20.1,4c-7.1,0-13.8-1.3-20.1-4c-6.2-2.7-11.7-6.3-16.3-11c-4.6-4.6-8.3-10.1-11-16.3c-2.7-6.2-4-12.9-4-20.1
			c0-7,1.3-13.7,4-20c2.7-6.3,6.3-11.8,11-16.4c4.6-4.7,10.1-8.4,16.3-11.1c6.2-2.7,12.9-4.1,20.1-4.1l25.8,25.5h-25.8
			c-3.5,0-6.9,0.7-10,2.1c-3.1,1.4-5.9,3.2-8.2,5.5c-2.3,2.3-4.2,5.1-5.5,8.3c-1.4,3.2-2.1,6.6-2.1,10.2c0,3.5,0.7,6.9,2.1,10
			c1.4,3.1,3.2,5.9,5.5,8.2c2.3,2.3,5,4.2,8.2,5.5c3.1,1.4,6.5,2.1,10,2.1c3.6,0,7-0.7,10.2-2.1c3.2-1.4,5.9-3.2,8.3-5.5
			c2.3-2.3,4.2-5,5.5-8.2c1.4-3.1,2.1-6.5,2.1-10v-62.2H393.3z"/>
	</g>
	<g id="Calque_6">
		<path class="st1" d="M429.9,323.6h41.3c-2.2-4-5.4-7.3-9.4-9.7c-4-2.4-8.4-3.7-13.4-3.7c-3.6,0-7,0.7-10.2,2.1
			c-3.2,1.4-6,3.3-8.4,5.7c-2.4,2.4-4.3,5.2-5.7,8.4c-1.4,3.2-2.1,6.6-2.1,10.2c0,3.6,0.7,7,2.1,10.2c1.4,3.2,3.3,6,5.7,8.4
			c2.4,2.4,5.2,4.3,8.4,5.7c3.2,1.4,6.6,2.1,10.2,2.1h40l-25.8,25.5h-14.2c-7.1,0-13.9-1.4-20.2-4.1c-6.3-2.7-11.8-6.4-16.5-11.1
			c-4.7-4.7-8.4-10.2-11.1-16.5c-2.7-6.3-4.1-13-4.1-20.2c0-7.1,1.4-13.9,4.1-20.2c2.7-6.3,6.4-11.8,11.1-16.5
			c4.7-4.7,10.2-8.4,16.5-11.1c6.3-2.7,13-4.1,20.2-4.1c7.1,0,13.9,1.4,20.2,4.1c6.3,2.7,11.8,6.4,16.5,11.1
			c4.7,4.7,8.4,10.2,11.1,16.5c2.7,6.3,4.1,13.1,4.1,20.2v12.6h-44.6L429.9,323.6z"/>
	</g>
	<g id="Calque_5">
		<path class="st1" d="M592.8,285.2l-56.8,103.2l-41.8-83.6l19.1-19.1l23.7,47.5l26.3-48H592.8z"/>
	</g>
</g>
<g id="Calque_3">
	<polygon class="st0" points="63.6,203.2 63.7,362.1 38.9,347.8 38.9,217.4 	"/>
</g>
<g id="Calque_2">
	<linearGradient id="SVGID_1_" gradientUnits="userSpaceOnUse" x1="108.8819" y1="251.6372" x2="225.8145" y2="346.8896">
		<stop  offset="0" style="stop-color:#A5177E"/>
		<stop  offset="6.805576e-02" style="stop-color:#A61C7F"/>
		<stop  offset="0.1218" style="stop-color:#A92884"/>
		<stop  offset="0.1705" style="stop-color:#AE398C"/>
		<stop  offset="0.2162" style="stop-color:#B65098"/>
		<stop  offset="0.2174" style="stop-color:#B65199"/>
		<stop  offset="0.2777" style="stop-color:#8F4283"/>
		<stop  offset="0.4154" style="stop-color:#402B5C"/>
		<stop  offset="0.4776" style="stop-color:#22254F"/>
		<stop  offset="1" style="stop-color:#294597"/>
	</linearGradient>
	<polygon class="st2" points="115.2,201.7 115.2,221.8 115.2,391.8 89.4,376.9 89.4,188.3 139.5,159.3 240.2,217.4 240.2,333.7 
		139.5,391.8 139.5,362.4 214.9,318.9 214.9,231.5 139.3,187.8 	"/>
</g>
</svg>
