<?xml version="1.0" encoding="UTF-8" standalone="no"?>
<svg
   xmlns:dc="http://purl.org/dc/elements/1.1/"
   xmlns:cc="http://creativecommons.org/ns#"
   xmlns:rdf="http://www.w3.org/1999/02/22-rdf-syntax-ns#"
   xmlns:svg="http://www.w3.org/2000/svg"
   xmlns="http://www.w3.org/2000/svg"
   xmlns:sodipodi="http://sodipodi.sourceforge.net/DTD/sodipodi-0.dtd"
   xmlns:inkscape="http://www.inkscape.org/namespaces/inkscape"
   inkscape:version="1.0 (4035a4fb49, 2020-05-01)"
   sodipodi:docname="Iconic Dev.svg"
   id="svg59"
   xml:space="preserve"
   style="enable-background:new 0 0 841.9 595.3;"
   viewBox="0 0 841.9 595.3"
   y="0px"
   x="0px"
   version="1.1"><metadata
   id="metadata65"><rdf:RDF><cc:Work
       rdf:about=""><dc:format>image/svg+xml</dc:format><dc:type
         rdf:resource="http://purl.org/dc/dcmitype/StillImage" /><dc:title></dc:title></cc:Work></rdf:RDF></metadata><defs
   id="defs63">
	
	
	
	
	
	
	
	
	

		
	
		
	
		
	
		
	
		
	
		
	
		
	</defs><sodipodi:namedview
   inkscape:current-layer="svg59"
   inkscape:window-maximized="1"
   inkscape:window-y="-8"
   inkscape:window-x="-8"
   inkscape:cy="123.01219"
   inkscape:cx="588.94984"
   inkscape:zoom="0.64"
   showgrid="false"
   id="namedview61"
   inkscape:window-height="837"
   inkscape:window-width="1600"
   inkscape:pageshadow="2"
   inkscape:pageopacity="0"
   guidetolerance="10"
   gridtolerance="10"
   objecttolerance="10"
   borderopacity="1"
   bordercolor="#666666"
   pagecolor="#ffffff" />
<style
   id="style2"
   type="text/css">
	.st0{fill:#A5177E;}
	.st1{fill:#22254F;}
	.st2{fill:url(#SVGID_1_);}
</style>
<path
   style="fill:#bf4539;fill-opacity:1"
   id="path4"
   d="M 392.8,161.3 V 264.5 H 367.3 V 186.6 Z"
   class="st0" /><path
   style="fill:#bf4539;fill-opacity:1"
   id="path7"
   d="m 449.1,264.5 c -7.1,0 -13.8,-1.4 -20.1,-4.1 -6.2,-2.7 -11.7,-6.4 -16.4,-11.1 -4.7,-4.7 -8.4,-10.1 -11.1,-16.4 -2.7,-6.2 -4.1,-12.9 -4.1,-20.1 0,-7.1 1.4,-13.9 4.1,-20.2 2.7,-6.3 6.4,-11.8 11.1,-16.5 4.7,-4.7 10.1,-8.4 16.4,-11.1 6.2,-2.7 12.9,-4.1 20.1,-4.1 7,0 13.6,1.3 19.9,3.9 6.3,2.6 11.9,6.4 16.8,11.3 l -18.1,18.1 c -2.5,-2.5 -5.3,-4.4 -8.5,-5.6 -3.2,-1.2 -6.5,-1.9 -10.1,-1.9 -3.6,0 -6.9,0.7 -10.1,2.1 -3.2,1.4 -6,3.2 -8.3,5.5 -2.4,2.3 -4.2,5.1 -5.6,8.3 -1.4,3.2 -2.1,6.6 -2.1,10.2 0,3.6 0.7,7 2.1,10.2 1.4,3.2 3.2,5.9 5.6,8.3 2.4,2.3 5.1,4.2 8.3,5.5 3.2,1.4 6.5,2.1 10.1,2.1 3.6,0 6.9,-0.7 10.1,-2 3.2,-1.3 6,-3.2 8.5,-5.7 l 18.1,18.1 c -4.9,4.9 -10.5,8.7 -16.8,11.3 -6.3,2.6 -13,3.9 -19.9,3.9 z"
   class="st0" /><path
   style="fill:#bf4539;fill-opacity:1"
   id="path10"
   d="m 529.4,264.5 c -7.1,0 -13.8,-1.4 -20.1,-4.1 -6.2,-2.7 -11.7,-6.4 -16.4,-11.1 -4.7,-4.7 -8.4,-10.1 -11.1,-16.4 -2.7,-6.2 -4.1,-12.9 -4.1,-20.1 0,-7 1.4,-13.7 4.1,-20 2.7,-6.3 6.4,-11.8 11.1,-16.4 4.7,-4.7 10.1,-8.4 16.4,-11.1 6.2,-2.7 12.9,-4.1 20.1,-4.1 7.1,0 13.7,1.4 20,4.1 6.3,2.7 11.8,6.4 16.4,11.1 4.7,4.7 8.4,10.2 11.1,16.4 2.7,6.3 4.1,12.9 4.1,20 0,7.1 -1.4,13.8 -4.1,20.1 -2.7,6.2 -6.4,11.7 -11.1,16.4 -4.7,4.7 -10.2,8.4 -16.4,11.1 -6.3,2.8 -12.9,4.1 -20,4.1 z m 0,-77.4 c -3.6,0 -7,0.7 -10.2,2.1 -3.2,1.4 -5.9,3.2 -8.3,5.5 -2.4,2.3 -4.2,5.1 -5.5,8.2 -1.4,3.1 -2.1,6.5 -2.1,10 0,3.6 0.7,7 2.1,10.2 1.4,3.2 3.2,5.9 5.5,8.3 2.3,2.3 5.1,4.2 8.3,5.5 3.2,1.4 6.6,2.1 10.2,2.1 3.5,0 6.9,-0.7 10,-2.1 3.1,-1.4 5.9,-3.2 8.2,-5.5 2.3,-2.3 4.2,-5.1 5.5,-8.3 1.4,-3.2 2.1,-6.6 2.1,-10.2 0,-3.5 -0.7,-6.9 -2.1,-10 -1.4,-3.1 -3.2,-5.9 -5.5,-8.2 -2.3,-2.3 -5.1,-4.2 -8.2,-5.5 -3.1,-1.4 -6.4,-2.1 -10,-2.1 z"
   class="st0" /><path
   style="fill:#bf4539;fill-opacity:1"
   id="path13"
   d="M 680,264.5 H 654.7 V 209 c 0,-3.1 -0.6,-6 -1.7,-8.7 -1.2,-2.7 -2.8,-5 -4.8,-7 -2,-2 -4.4,-3.5 -7.1,-4.7 -2.7,-1.2 -5.6,-1.7 -8.6,-1.7 -3.1,0 -6,0.6 -8.7,1.7 -2.7,1.2 -5.1,2.7 -7.2,4.7 -2.1,2 -3.7,4.3 -4.8,7 -1.2,2.7 -1.7,5.6 -1.7,8.7 v 55.5 H 584.8 V 209 c 0,-6.5 1.2,-12.7 3.7,-18.5 2.5,-5.8 5.9,-10.9 10.3,-15.2 4.3,-4.3 9.4,-7.8 15.2,-10.3 5.8,-2.5 12,-3.7 18.6,-3.7 6.5,0 12.7,1.2 18.5,3.7 5.8,2.5 10.8,5.9 15.1,10.3 4.3,4.3 7.6,9.4 10.1,15.2 2.5,5.8 3.7,12 3.7,18.5 z"
   class="st0" /><path
   style="fill:#bf4539;fill-opacity:1"
   id="path16"
   d="M 710.1,161.3 V 264.5 H 684.6 V 186.6 Z"
   class="st0" /><path
   style="fill:#bf4539;fill-opacity:1"
   id="path19"
   d="m 766.4,264.5 c -7.1,0 -13.8,-1.4 -20.1,-4.1 -6.2,-2.7 -11.7,-6.4 -16.4,-11.1 -4.7,-4.7 -8.4,-10.1 -11.1,-16.4 -2.7,-6.2 -4.1,-12.9 -4.1,-20.1 0,-7.1 1.4,-13.9 4.1,-20.2 2.7,-6.3 6.4,-11.8 11.1,-16.5 4.7,-4.7 10.1,-8.4 16.4,-11.1 6.2,-2.7 12.9,-4.1 20.1,-4.1 7,0 13.6,1.3 19.9,3.9 6.3,2.6 11.9,6.4 16.8,11.3 L 785,194.4 c -2.5,-2.5 -5.3,-4.4 -8.5,-5.6 -3.2,-1.2 -6.5,-1.9 -10.1,-1.9 -3.5,0 -6.9,0.7 -10.1,2.1 -3.2,1.4 -6,3.2 -8.3,5.5 -2.4,2.3 -4.2,5.1 -5.6,8.3 -1.4,3.2 -2.1,6.6 -2.1,10.2 0,3.6 0.7,7 2.1,10.2 1.4,3.2 3.2,5.9 5.6,8.3 2.4,2.3 5.1,4.2 8.3,5.5 3.2,1.4 6.5,2.1 10.1,2.1 3.5,0 6.9,-0.7 10.1,-2 3.2,-1.3 6,-3.2 8.5,-5.7 l 18.1,18.1 c -4.9,4.9 -10.5,8.7 -16.8,11.3 -6.3,2.4 -13,3.7 -19.9,3.7 z"
   class="st0" /><g
   id="Calque_7">
		<path
   style="fill:#732f2f;fill-opacity:1"
   class="st1"
   d="M 393.3,274.8 V 337 c 0,7.1 -1.4,13.8 -4.1,20.1 -2.7,6.2 -6.4,11.7 -11,16.3 -4.6,4.6 -10.1,8.3 -16.4,11 -6.3,2.7 -13,4 -20.1,4 -7.1,0 -13.8,-1.3 -20.1,-4 -6.2,-2.7 -11.7,-6.3 -16.3,-11 -4.6,-4.6 -8.3,-10.1 -11,-16.3 -2.7,-6.2 -4,-12.9 -4,-20.1 0,-7 1.3,-13.7 4,-20 2.7,-6.3 6.3,-11.8 11,-16.4 4.6,-4.7 10.1,-8.4 16.3,-11.1 6.2,-2.7 12.9,-4.1 20.1,-4.1 l 25.8,25.5 h -25.8 c -3.5,0 -6.9,0.7 -10,2.1 -3.1,1.4 -5.9,3.2 -8.2,5.5 -2.3,2.3 -4.2,5.1 -5.5,8.3 -1.4,3.2 -2.1,6.6 -2.1,10.2 0,3.5 0.7,6.9 2.1,10 1.4,3.1 3.2,5.9 5.5,8.2 2.3,2.3 5,4.2 8.2,5.5 3.1,1.4 6.5,2.1 10,2.1 3.6,0 7,-0.7 10.2,-2.1 3.2,-1.4 5.9,-3.2 8.3,-5.5 2.3,-2.3 4.2,-5 5.5,-8.2 1.4,-3.1 2.1,-6.5 2.1,-10 v -62.2 z"
   id="path22" />
	</g><path
   style="fill:#732f2f;fill-opacity:1"
   id="path25"
   d="m 429.9,323.6 h 41.3 c -2.2,-4 -5.4,-7.3 -9.4,-9.7 -4,-2.4 -8.4,-3.7 -13.4,-3.7 -3.6,0 -7,0.7 -10.2,2.1 -3.2,1.4 -6,3.3 -8.4,5.7 -2.4,2.4 -4.3,5.2 -5.7,8.4 -1.4,3.2 -2.1,6.6 -2.1,10.2 0,3.6 0.7,7 2.1,10.2 1.4,3.2 3.3,6 5.7,8.4 2.4,2.4 5.2,4.3 8.4,5.7 3.2,1.4 6.6,2.1 10.2,2.1 h 40 l -25.8,25.5 h -14.2 c -7.1,0 -13.9,-1.4 -20.2,-4.1 -6.3,-2.7 -11.8,-6.4 -16.5,-11.1 -4.7,-4.7 -8.4,-10.2 -11.1,-16.5 -2.7,-6.3 -4.1,-13 -4.1,-20.2 0,-7.1 1.4,-13.9 4.1,-20.2 2.7,-6.3 6.4,-11.8 11.1,-16.5 4.7,-4.7 10.2,-8.4 16.5,-11.1 6.3,-2.7 13,-4.1 20.2,-4.1 7.1,0 13.9,1.4 20.2,4.1 6.3,2.7 11.8,6.4 16.5,11.1 4.7,4.7 8.4,10.2 11.1,16.5 2.7,6.3 4.1,13.1 4.1,20.2 v 12.6 h -44.6 z"
   class="st1" /><g
   id="Calque_5">
		<path
   style="fill:#732f2f;fill-opacity:1"
   class="st1"
   d="m 592.8,285.2 -56.8,103.2 -41.8,-83.6 19.1,-19.1 23.7,47.5 26.3,-48 z"
   id="path28" />
	</g>
<g
   id="Calque_3">
	<polygon
   style="fill:#bf4539;fill-opacity:1"
   id="polygon32"
   points="63.6,203.2 63.7,362.1 38.9,347.8 38.9,217.4  "
   class="st0" />
</g>
<g
   id="Calque_2">
	<linearGradient
   y2="318.76459"
   x2="189.877"
   y1="234.44971"
   x1="135.4444"
   gradientUnits="userSpaceOnUse"
   id="SVGID_1_">
		<stop
   id="stop35"
   style="stop-color:#bf4539;stop-opacity:1"
   offset="0" />
		
		
		
		
		
		
		
		
		<stop
   id="stop53"
   style="stop-color:#732f2f;stop-opacity:1"
   offset="1" />
	</linearGradient>
	<polygon
   style="fill:url(#SVGID_1_)"
   id="polygon56"
   points="115.2,201.7 115.2,221.8 115.2,391.8 89.4,376.9 89.4,188.3 139.5,159.3 240.2,217.4 240.2,333.7    139.5,391.8 139.5,362.4 214.9,318.9 214.9,231.5 139.3,187.8  "
   class="st2" />
</g>
</svg>
